<?xml version="1.0" encoding="UTF-8"?>
<svg xmlns="http://www.w3.org/2000/svg" xmlns:xlink="http://www.w3.org/1999/xlink" width="40pt" height="40pt" viewBox="0 0 40 40" version="1.1">
<g id="surface1">
<path style=" stroke:none;fill-rule:nonzero;fill:rgb(69.803922%,40%,19.607843%);fill-opacity:1;" d="M 31.816406 31.3125 L 31.816406 31.320312 C 31.824219 31.738281 31.792969 32.039062 31.792969 32.039062 C 31.726562 31.820312 31.476562 31.53125 31.117188 31.273438 L 31.109375 31.273438 C 30.535156 30.855469 29.675781 30.496094 28.835938 30.613281 C 28.058594 30.722656 27.34375 30.289062 26.875 29.898438 C 26.875 29.898438 26.867188 29.898438 26.867188 29.886719 C 26.566406 29.636719 26.367188 29.40625 26.316406 29.347656 C 26.46875 29.605469 26.46875 29.972656 26.375 30.347656 C 26.375 30.355469 26.375 30.355469 26.375 30.355469 C 26.234375 30.921875 25.902344 31.496094 25.617188 31.746094 C 25.140625 32.148438 25.433594 33.753906 25.433594 33.753906 C 24.476562 33.753906 23.527344 32.964844 23.074219 32.53125 L 23.066406 32.53125 C 22.902344 32.371094 22.800781 32.253906 22.800781 32.253906 C 22.652344 32.421875 22.550781 32.636719 22.484375 32.839844 C 22.484375 32.847656 22.492188 32.847656 22.484375 32.855469 C 22.367188 33.3125 22.433594 33.753906 22.433594 33.753906 C 21.742188 33.828125 20.351562 31.273438 20.351562 31.273438 C 20.316406 32.039062 19.660156 32.296875 18.558594 32.839844 C 18.484375 32.878906 18.410156 32.921875 18.351562 32.972656 C 17.984375 33.238281 17.824219 33.65625 17.757812 34.03125 L 17.757812 34.070312 C 17.683594 34.554688 17.757812 34.964844 17.757812 34.964844 C 17.027344 34.488281 17.285156 33.722656 17.351562 32.730469 C 17.390625 32.179688 17.101562 31.671875 16.835938 31.339844 C 16.835938 31.328125 16.824219 31.320312 16.824219 31.320312 C 16.625 31.0625 16.441406 30.90625 16.441406 30.90625 C 16.460938 31.1875 16.390625 31.429688 16.277344 31.628906 C 15.84375 32.464844 14.609375 32.695312 14.425781 32.722656 C 15.609375 32.195312 14.910156 30.503906 14.402344 29.953125 C 14.183594 29.714844 14.015625 29.386719 13.917969 29.105469 C 13.765625 28.730469 13.699219 28.421875 13.699219 28.421875 C 13.640625 28.804688 13.441406 29.128906 13.167969 29.40625 C 12.507812 30.0625 11.425781 30.378906 10.882812 30.246094 C 10.117188 30.0625 8.183594 30.863281 8.183594 30.863281 C 8.183594 30.863281 8.035156 29.914062 9.859375 29.480469 C 10.59375 29.304688 11.007812 28.972656 11.191406 28.511719 L 11.191406 28.503906 C 11.324219 28.179688 11.335938 27.796875 11.257812 27.363281 C 11.257812 27.363281 11.257812 27.363281 11.257812 27.355469 C 11.175781 26.886719 10.992188 26.371094 10.742188 25.820312 C 9.933594 24.03125 11.257812 22.003906 11.257812 22.003906 C 11.476562 21.65625 11.535156 21.097656 11.507812 20.511719 C 11.5 20.164062 11.449219 19.8125 11.390625 19.488281 C 11.375 19.421875 11.367188 19.355469 11.351562 19.273438 C 11.21875 18.347656 11.234375 16.605469 11.390625 16.171875 C 11.558594 15.703125 11.601562 14.296875 11.726562 12.898438 C 11.859375 11.488281 12.792969 9.023438 13.433594 8.636719 C 13.859375 8.378906 14.34375 7.695312 14.617188 7.28125 C 14.75 7.070312 14.835938 6.929688 14.835938 6.929688 C 14.890625 6.8125 14.96875 6.703125 15.042969 6.605469 C 16.652344 4.304688 20.625 5.40625 20.625 5.40625 C 23.5 4.398438 25.507812 5.679688 26.542969 6.613281 C 26.925781 6.953125 27.175781 7.246094 27.292969 7.363281 C 27.300781 7.371094 27.300781 7.371094 27.308594 7.378906 C 27.765625 7.828125 29.199219 9.089844 29.160156 9.671875 C 29.125 10.253906 29.710938 11.753906 30.21875 12.445312 C 30.734375 13.136719 30.585938 16.722656 30.585938 17.5625 C 30.585938 18.40625 30.402344 19.972656 30.800781 21.03125 C 31.210938 22.089844 31.210938 25.203125 30.84375 26.046875 C 30.476562 26.878906 30.402344 28.195312 31.210938 29.039062 C 31.710938 29.570312 31.808594 30.613281 31.816406 31.3125 Z M 31.816406 31.3125 "/>
<path style=" stroke:none;fill-rule:nonzero;fill:rgb(100%,100%,100%);fill-opacity:1;" d="M 16.6875 15.285156 C 16.6875 15.285156 17.699219 15 18.785156 15.792969 C 18.9375 15.90625 18.960938 16.128906 18.84375 16.28125 C 18.570312 16.648438 18.007812 17.191406 17.234375 16.789062 C 17.234375 16.789062 15.636719 16.140625 16.6875 15.285156 Z M 16.6875 15.285156 "/>
<path style=" stroke:none;fill-rule:nonzero;fill:rgb(44.705882%,25.098039%,12.156863%);fill-opacity:1;" d="M 24.191406 22.730469 C 24.167969 23.554688 23.316406 23.796875 22.625 23.796875 C 22.433594 23.796875 22.242188 23.773438 22.09375 23.738281 C 22 23.722656 21.902344 23.695312 21.792969 23.679688 C 21.25 23.589844 20.484375 23.53125 19.917969 23.589844 C 19.734375 23.597656 19.566406 23.628906 19.441406 23.671875 C 19.324219 23.714844 19.210938 23.730469 19.09375 23.738281 C 18.59375 23.773438 18.074219 23.570312 17.71875 23.203125 C 17.277344 22.761719 17.71875 22.039062 17.71875 22.039062 C 17.835938 21.78125 18.09375 21.613281 18.390625 21.511719 C 18.660156 21.421875 18.960938 21.378906 19.226562 21.363281 C 19.285156 21.355469 19.34375 21.355469 19.390625 21.355469 C 19.660156 21.355469 19.875 21.371094 20 21.398438 C 20.050781 21.40625 20.085938 21.40625 20.132812 21.40625 C 20.160156 21.40625 20.191406 21.40625 20.21875 21.398438 C 20.5 21.378906 20.765625 21.253906 20.875 21.195312 C 20.910156 21.179688 20.925781 21.171875 20.925781 21.171875 C 20.933594 21.179688 20.941406 21.1875 20.949219 21.1875 C 21.066406 21.273438 21.324219 21.328125 21.625 21.371094 C 21.652344 21.371094 21.675781 21.371094 21.699219 21.378906 C 21.941406 21.40625 22.210938 21.421875 22.433594 21.429688 C 22.515625 21.4375 22.601562 21.4375 22.667969 21.4375 L 22.824219 21.4375 C 23 21.4375 23.25 21.472656 23.492188 21.578125 C 23.867188 21.746094 24.210938 22.089844 24.191406 22.730469 Z M 24.191406 22.730469 "/>
<path style=" stroke:none;fill-rule:nonzero;fill:rgb(100%,100%,100%);fill-opacity:1;" d="M 25.105469 15.285156 C 25.105469 15.285156 24.09375 15 23.007812 15.792969 C 22.851562 15.90625 22.832031 16.128906 22.945312 16.28125 C 23.21875 16.648438 23.785156 17.191406 24.558594 16.789062 C 24.558594 16.789062 26.152344 16.140625 25.105469 15.285156 Z M 25.105469 15.285156 "/>
<path style=" stroke:none;fill-rule:nonzero;fill:rgb(44.705882%,25.098039%,12.156863%);fill-opacity:1;" d="M 20.5 19.152344 C 20.5 18.953125 20.277344 18.789062 20.003906 18.789062 C 19.730469 18.789062 19.507812 18.953125 19.507812 19.152344 C 19.507812 19.355469 19.730469 19.515625 20.003906 19.515625 C 20.277344 19.515625 20.5 19.355469 20.5 19.152344 Z M 20.5 19.152344 "/>
<path style=" stroke:none;fill-rule:nonzero;fill:rgb(44.705882%,25.098039%,12.156863%);fill-opacity:1;" d="M 22.167969 19.152344 C 22.167969 18.953125 21.945312 18.789062 21.671875 18.789062 C 21.398438 18.789062 21.179688 18.953125 21.179688 19.152344 C 21.179688 19.355469 21.398438 19.515625 21.671875 19.515625 C 21.945312 19.515625 22.167969 19.355469 22.167969 19.152344 Z M 22.167969 19.152344 "/>
<path style=" stroke:none;fill-rule:nonzero;fill:rgb(18.823529%,18.823529%,18.823529%);fill-opacity:1;" d="M 19.226562 21.363281 C 19.21875 21.6875 19.167969 22.429688 18.851562 22.496094 C 18.492188 22.570312 18.410156 21.761719 18.390625 21.511719 C 18.660156 21.421875 18.960938 21.378906 19.226562 21.363281 Z M 19.226562 21.363281 "/>
<path style=" stroke:none;fill-rule:nonzero;fill:rgb(18.823529%,18.823529%,18.823529%);fill-opacity:1;" d="M 19.917969 23.589844 C 19.734375 23.597656 19.566406 23.628906 19.441406 23.671875 C 19.324219 23.714844 19.210938 23.730469 19.09375 23.738281 C 19.09375 23.488281 19.117188 22.714844 19.46875 22.648438 C 19.800781 22.578125 19.890625 23.3125 19.917969 23.589844 Z M 19.917969 23.589844 "/>
<path style=" stroke:none;fill-rule:nonzero;fill:rgb(18.823529%,18.823529%,18.823529%);fill-opacity:1;" d="M 20.21875 21.398438 C 20.21875 21.496094 20.210938 21.636719 20.183594 21.789062 C 20.140625 22.078125 20.050781 22.398438 19.84375 22.4375 C 19.507812 22.503906 19.417969 21.695312 19.390625 21.355469 C 19.660156 21.355469 19.875 21.371094 20 21.398438 C 20.050781 21.40625 20.085938 21.40625 20.132812 21.40625 C 20.160156 21.40625 20.191406 21.40625 20.21875 21.398438 Z M 20.21875 21.398438 "/>
<path style=" stroke:none;fill-rule:nonzero;fill:rgb(18.823529%,18.823529%,18.823529%);fill-opacity:1;" d="M 20.949219 21.1875 C 20.949219 21.320312 20.941406 21.488281 20.925781 21.65625 L 20.925781 21.664062 C 20.882812 22.03125 20.792969 22.398438 20.585938 22.4375 C 20.359375 22.480469 20.25 22.128906 20.183594 21.789062 C 20.167969 21.648438 20.152344 21.511719 20.132812 21.40625 C 20.160156 21.40625 20.191406 21.40625 20.21875 21.398438 C 20.5 21.378906 20.765625 21.253906 20.875 21.195312 C 20.910156 21.179688 20.925781 21.171875 20.925781 21.171875 C 20.933594 21.179688 20.941406 21.1875 20.949219 21.1875 Z M 20.949219 21.1875 "/>
<path style=" stroke:none;fill-rule:nonzero;fill:rgb(18.823529%,18.823529%,18.823529%);fill-opacity:1;" d="M 21.699219 21.378906 C 21.699219 21.472656 21.691406 21.605469 21.675781 21.753906 L 21.675781 21.789062 C 21.632812 22.070312 21.535156 22.386719 21.324219 22.4375 C 21.101562 22.480469 20.984375 22.0625 20.925781 21.664062 L 20.925781 21.65625 C 20.902344 21.480469 20.882812 21.3125 20.875 21.195312 C 20.910156 21.179688 20.925781 21.171875 20.925781 21.171875 C 20.933594 21.179688 20.941406 21.1875 20.949219 21.1875 C 21.066406 21.273438 21.324219 21.328125 21.625 21.371094 C 21.652344 21.371094 21.675781 21.371094 21.699219 21.378906 Z M 21.699219 21.378906 "/>
<path style=" stroke:none;fill-rule:nonzero;fill:rgb(18.823529%,18.823529%,18.823529%);fill-opacity:1;" d="M 22.433594 21.429688 C 22.433594 21.738281 22.375 22.371094 22.066406 22.4375 C 21.851562 22.480469 21.734375 22.136719 21.675781 21.789062 L 21.675781 21.753906 C 21.652344 21.621094 21.632812 21.480469 21.625 21.371094 C 21.652344 21.371094 21.675781 21.371094 21.699219 21.378906 C 21.941406 21.40625 22.210938 21.421875 22.433594 21.429688 Z M 22.433594 21.429688 "/>
<path style=" stroke:none;fill-rule:nonzero;fill:rgb(18.823529%,18.823529%,18.823529%);fill-opacity:1;" d="M 22.625 23.796875 C 22.433594 23.796875 22.242188 23.773438 22.09375 23.738281 C 22 23.722656 21.902344 23.695312 21.792969 23.679688 C 21.808594 23.429688 21.890625 22.621094 22.242188 22.695312 C 22.59375 22.773438 22.625 23.546875 22.625 23.796875 Z M 22.625 23.796875 "/>
<path style=" stroke:none;fill-rule:nonzero;fill:rgb(18.823529%,18.823529%,18.823529%);fill-opacity:1;" d="M 23.492188 21.578125 C 23.476562 21.871094 23.367188 22.5625 23.042969 22.496094 C 22.71875 22.429688 22.675781 21.722656 22.667969 21.4375 L 22.824219 21.4375 C 23 21.4375 23.25 21.472656 23.492188 21.578125 Z M 23.492188 21.578125 "/>
<path style=" stroke:none;fill-rule:nonzero;fill:rgb(44.705882%,25.098039%,12.156863%);fill-opacity:1;" d="M 21.898438 25.675781 C 21.859375 25.675781 21.816406 25.667969 21.777344 25.652344 C 20.804688 25.25 19.625 25.65625 19.613281 25.660156 C 19.449219 25.714844 19.269531 25.628906 19.214844 25.46875 C 19.15625 25.304688 19.242188 25.125 19.402344 25.070312 C 19.460938 25.050781 20.820312 24.582031 22.015625 25.074219 C 22.175781 25.140625 22.253906 25.324219 22.1875 25.484375 C 22.136719 25.605469 22.019531 25.675781 21.898438 25.675781 Z M 21.898438 25.675781 "/>
<path style=" stroke:none;fill-rule:nonzero;fill:rgb(44.705882%,25.098039%,12.156863%);fill-opacity:1;" d="M 27.109375 23.203125 C 27.117188 23.378906 26.992188 23.53125 26.816406 23.546875 L 26.792969 23.546875 C 26.632812 23.546875 26.5 23.421875 26.484375 23.261719 C 26.433594 22.621094 25.402344 21.128906 24.925781 21.011719 C 24.449219 20.886719 23.71875 20.136719 23.199219 19.546875 C 23.125 19.695312 23.027344 19.820312 22.882812 19.921875 C 22.824219 19.972656 22.757812 19.988281 22.699219 19.988281 C 22.601562 19.988281 22.507812 19.945312 22.449219 19.863281 C 22.34375 19.730469 22.367188 19.53125 22.507812 19.429688 C 22.632812 19.328125 22.683594 19.222656 22.675781 19.078125 C 22.667969 18.8125 22.46875 18.570312 22.382812 18.523438 C 22.050781 18.320312 21.742188 17.855469 21.710938 17.796875 C 21.683594 17.761719 21.667969 17.730469 21.660156 17.6875 C 21.558594 17.171875 21.007812 17.148438 20.984375 17.148438 C 20.199219 17.089844 20.109375 17.445312 20.058594 17.671875 C 19.976562 17.988281 19.449219 18.503906 19.226562 18.714844 C 19.101562 18.828125 19.042969 18.953125 19.042969 19.070312 C 19.050781 19.273438 19.21875 19.445312 19.226562 19.445312 C 19.351562 19.5625 19.359375 19.761719 19.242188 19.886719 C 19.125 20.011719 18.925781 20.023438 18.800781 19.90625 C 18.765625 19.878906 18.585938 19.695312 18.484375 19.421875 C 18.042969 19.789062 17.402344 20.304688 17.042969 20.4375 C 16.609375 20.605469 14.835938 21.871094 14.691406 24.738281 C 14.601562 26.464844 14.234375 28.039062 13.917969 29.105469 C 13.765625 28.730469 13.699219 28.421875 13.699219 28.421875 C 13.640625 28.804688 13.441406 29.128906 13.167969 29.40625 C 13.5 28.386719 13.96875 26.628906 14.066406 24.714844 C 14.234375 21.472656 16.285156 20.054688 16.824219 19.855469 C 17.152344 19.730469 18.035156 18.996094 18.527344 18.554688 C 18.542969 18.546875 18.699219 18.355469 18.792969 18.261719 C 19.109375 17.972656 19.417969 17.621094 19.449219 17.511719 C 19.484375 17.378906 19.542969 17.28125 19.601562 17.171875 C 19.601562 17.164062 19.601562 17.164062 19.601562 17.164062 C 19.601562 17.148438 19.882812 15.730469 19.210938 14.355469 C 18.800781 14.1875 17.167969 13.597656 16.09375 14.046875 C 15.925781 14.113281 15.742188 14.039062 15.683594 13.878906 C 15.617188 13.722656 15.691406 13.539062 15.851562 13.472656 C 16.734375 13.097656 17.851562 13.28125 18.625 13.496094 C 17.410156 12.253906 15.117188 12.386719 15.09375 12.386719 C 14.933594 12.414062 14.777344 12.273438 14.757812 12.097656 C 14.75 11.929688 14.882812 11.78125 15.050781 11.761719 C 15.175781 11.753906 18 11.589844 19.335938 13.363281 C 20.21875 14.539062 20.316406 15.828125 20.285156 16.605469 C 20.5 16.539062 20.734375 16.496094 21.015625 16.523438 C 21.132812 16.53125 21.277344 16.554688 21.433594 16.613281 C 21.402344 15.972656 21.46875 14.980469 21.992188 13.988281 L 21.992188 13.980469 C 21.992188 13.972656 22 13.964844 22.007812 13.964844 C 22.117188 13.761719 22.234375 13.5625 22.375 13.363281 C 23.71875 11.589844 26.542969 11.753906 26.660156 11.761719 C 26.835938 11.78125 26.96875 11.929688 26.949219 12.097656 C 26.941406 12.273438 26.785156 12.414062 26.617188 12.386719 C 26.601562 12.386719 24.375 12.253906 23.152344 13.4375 C 23.476562 13.371094 23.851562 13.347656 24.242188 13.414062 C 24.410156 13.4375 24.527344 13.597656 24.5 13.761719 C 24.476562 13.9375 24.316406 14.054688 24.140625 14.03125 C 23.316406 13.898438 22.675781 14.230469 22.515625 14.328125 C 22.140625 15.078125 22.050781 15.839844 22.050781 16.386719 C 22.050781 16.847656 22.117188 17.15625 22.117188 17.164062 C 22.175781 17.261719 22.226562 17.371094 22.257812 17.503906 C 22.367188 17.65625 22.566406 17.898438 22.710938 17.980469 C 22.875 18.078125 23.042969 18.289062 23.160156 18.53125 C 23.734375 19.253906 24.710938 20.3125 25.074219 20.40625 C 25.917969 20.613281 27.042969 22.414062 27.109375 23.203125 Z M 27.109375 23.203125 "/>
<path style=" stroke:none;fill-rule:nonzero;fill:rgb(44.705882%,25.098039%,12.156863%);fill-opacity:1;" d="M 27.554688 25.734375 L 27.328125 24.664062 C 27.292969 24.496094 27.132812 24.394531 26.960938 24.421875 C 26.792969 24.457031 26.683594 24.625 26.71875 24.792969 L 26.941406 25.863281 C 26.972656 26.011719 27.101562 26.109375 27.246094 26.109375 C 27.269531 26.109375 27.289062 26.109375 27.3125 26.105469 C 27.480469 26.070312 27.589844 25.902344 27.554688 25.734375 Z M 27.554688 25.734375 "/>
<path style=" stroke:none;fill-rule:nonzero;fill:rgb(44.705882%,25.098039%,12.156863%);fill-opacity:1;" d="M 13.132812 22.597656 C 12.851562 23.113281 12.382812 24.496094 12.558594 25.488281 C 12.710938 26.378906 11.925781 27.546875 11.234375 28.453125 C 11.21875 28.472656 11.210938 28.488281 11.191406 28.503906 C 11.324219 28.179688 11.335938 27.796875 11.257812 27.363281 C 11.257812 27.363281 11.257812 27.363281 11.257812 27.355469 C 11.632812 26.796875 12.027344 26.078125 11.941406 25.597656 C 11.734375 24.371094 12.285156 22.839844 12.59375 22.289062 C 12.675781 22.136719 12.867188 22.089844 13.015625 22.171875 C 13.167969 22.253906 13.21875 22.445312 13.132812 22.597656 Z M 13.132812 22.597656 "/>
<path style=" stroke:none;fill-rule:nonzero;fill:rgb(44.705882%,25.098039%,12.156863%);fill-opacity:1;" d="M 13.050781 15.953125 C 12.917969 16.296875 12.75 16.953125 12.882812 17.261719 C 13.050781 17.636719 12.757812 18.121094 12.359375 18.789062 C 12.042969 19.304688 11.675781 19.921875 11.507812 20.511719 C 11.5 20.164062 11.449219 19.8125 11.390625 19.488281 C 11.375 19.421875 11.367188 19.355469 11.351562 19.273438 C 11.507812 18.988281 11.675781 18.714844 11.824219 18.464844 C 12.035156 18.113281 12.316406 17.636719 12.308594 17.496094 C 12.035156 16.871094 12.425781 15.839844 12.46875 15.722656 C 12.535156 15.5625 12.710938 15.488281 12.875 15.546875 C 13.035156 15.613281 13.117188 15.796875 13.050781 15.953125 Z M 13.050781 15.953125 "/>
<path style=" stroke:none;fill-rule:nonzero;fill:rgb(44.705882%,25.098039%,12.156863%);fill-opacity:1;" d="M 12.964844 14.960938 C 12.957031 14.960938 12.949219 14.960938 12.9375 14.960938 C 12.769531 14.945312 12.640625 14.792969 12.65625 14.621094 L 12.757812 13.4375 C 12.773438 13.265625 12.921875 13.132812 13.09375 13.152344 C 13.265625 13.167969 13.394531 13.316406 13.378906 13.488281 L 13.277344 14.675781 C 13.261719 14.839844 13.128906 14.960938 12.964844 14.960938 Z M 12.964844 14.960938 "/>
<path style=" stroke:none;fill-rule:nonzero;fill:rgb(44.705882%,25.098039%,12.156863%);fill-opacity:1;" d="M 22.027344 11 C 21.945312 11 21.867188 10.96875 21.804688 10.910156 C 21.683594 10.789062 21.683594 10.589844 21.804688 10.46875 C 21.835938 10.4375 22.613281 9.660156 23.660156 9.441406 C 23.839844 9.410156 23.996094 9.519531 24.027344 9.6875 C 24.0625 9.855469 23.953125 10.019531 23.785156 10.054688 C 22.921875 10.234375 22.253906 10.898438 22.246094 10.90625 C 22.1875 10.96875 22.105469 11 22.027344 11 Z M 22.027344 11 "/>
<path style=" stroke:none;fill-rule:nonzero;fill:rgb(44.705882%,25.098039%,12.156863%);fill-opacity:1;" d="M 29.222656 21.484375 C 29.109375 21.484375 29 21.425781 28.945312 21.320312 C 28.652344 20.757812 28.753906 19.667969 28.851562 18.613281 C 28.871094 18.414062 28.886719 18.214844 28.902344 18.03125 C 28.980469 17.035156 28.441406 15.621094 28.4375 15.605469 C 28.375 15.445312 28.457031 15.265625 28.617188 15.203125 C 28.78125 15.140625 28.960938 15.222656 29.019531 15.382812 C 29.046875 15.445312 29.613281 16.941406 29.527344 18.082031 C 29.511719 18.269531 29.492188 18.46875 29.472656 18.671875 C 29.390625 19.542969 29.289062 20.628906 29.5 21.027344 C 29.578125 21.179688 29.519531 21.371094 29.367188 21.449219 C 29.320312 21.476562 29.269531 21.484375 29.222656 21.484375 Z M 29.222656 21.484375 "/>
<path style=" stroke:none;fill-rule:nonzero;fill:rgb(44.705882%,25.098039%,12.156863%);fill-opacity:1;" d="M 18.042969 7.820312 C 17.976562 7.878906 17.902344 7.90625 17.816406 7.90625 C 17.742188 7.90625 17.660156 7.871094 17.601562 7.8125 C 16.925781 7.113281 15.402344 7.164062 14.617188 7.28125 C 14.75 7.070312 14.835938 6.929688 14.835938 6.929688 C 14.890625 6.8125 14.96875 6.703125 15.042969 6.605469 C 15.917969 6.546875 17.292969 6.597656 18.042969 7.378906 C 18.167969 7.503906 18.160156 7.695312 18.042969 7.820312 Z M 18.042969 7.820312 "/>
<path style=" stroke:none;fill-rule:nonzero;fill:rgb(44.705882%,25.098039%,12.156863%);fill-opacity:1;" d="M 27.308594 7.378906 C 26.085938 6.996094 25 7.496094 24.984375 7.503906 C 24.824219 7.578125 24.640625 7.511719 24.566406 7.355469 C 24.492188 7.203125 24.558594 7.023438 24.71875 6.945312 C 24.765625 6.921875 25.527344 6.5625 26.542969 6.613281 C 26.925781 6.953125 27.175781 7.246094 27.292969 7.363281 C 27.300781 7.371094 27.300781 7.371094 27.308594 7.378906 Z M 27.308594 7.378906 "/>
<path style=" stroke:none;fill-rule:nonzero;fill:rgb(44.705882%,25.098039%,12.156863%);fill-opacity:1;" d="M 26.316406 29.347656 C 26.46875 29.605469 26.46875 29.972656 26.375 30.347656 C 26.160156 29.78125 25.390625 27.671875 25.390625 26.871094 C 25.390625 26.039062 25.292969 24.089844 25.292969 24.0625 C 25.285156 23.898438 25.417969 23.746094 25.59375 23.738281 C 25.765625 23.746094 25.910156 23.863281 25.917969 24.03125 C 25.925781 24.113281 26.015625 26.023438 26.015625 26.871094 C 26.015625 27.429688 26.550781 29.003906 26.867188 29.886719 C 26.566406 29.636719 26.367188 29.40625 26.316406 29.347656 Z M 26.316406 29.347656 "/>
<path style=" stroke:none;fill-rule:nonzero;fill:rgb(44.705882%,25.098039%,12.156863%);fill-opacity:1;" d="M 23.085938 30.011719 C 22.816406 30.597656 22.933594 31.753906 23.066406 32.53125 C 22.902344 32.371094 22.800781 32.253906 22.800781 32.253906 C 22.652344 32.421875 22.550781 32.636719 22.484375 32.839844 C 22.351562 32.121094 22.125 30.597656 22.515625 29.753906 C 22.59375 29.597656 22.777344 29.53125 22.933594 29.605469 C 23.09375 29.671875 23.160156 29.863281 23.085938 30.011719 Z M 23.085938 30.011719 "/>
<path style=" stroke:none;fill-rule:nonzero;fill:rgb(44.705882%,25.098039%,12.156863%);fill-opacity:1;" d="M 16.824219 31.320312 C 16.625 31.0625 16.441406 30.90625 16.441406 30.90625 C 16.460938 31.1875 16.390625 31.429688 16.277344 31.628906 C 16.007812 30.929688 15.515625 29.398438 16.015625 28.789062 C 16.125 28.65625 16.324219 28.636719 16.460938 28.746094 C 16.59375 28.855469 16.609375 29.054688 16.5 29.1875 C 16.308594 29.429688 16.5 30.421875 16.824219 31.320312 Z M 16.824219 31.320312 "/>
<path style=" stroke:none;fill-rule:nonzero;fill:rgb(44.705882%,25.098039%,12.156863%);fill-opacity:1;" d="M 16.597656 28.242188 C 16.566406 28.242188 16.539062 28.238281 16.507812 28.226562 C 16.339844 28.175781 16.25 28 16.300781 27.835938 C 16.417969 27.464844 16.527344 26.980469 16.507812 26.847656 C 16.480469 26.675781 16.597656 26.515625 16.769531 26.488281 C 16.945312 26.460938 17.097656 26.582031 17.125 26.75 C 17.175781 27.09375 16.964844 27.8125 16.898438 28.023438 C 16.855469 28.15625 16.734375 28.242188 16.597656 28.242188 Z M 16.597656 28.242188 "/>
<path style=" stroke:none;fill-rule:nonzero;fill:rgb(44.705882%,25.098039%,12.156863%);fill-opacity:1;" d="M 31.816406 31.3125 L 31.816406 31.320312 C 31.824219 31.738281 31.792969 32.039062 31.792969 32.039062 C 31.726562 31.820312 31.476562 31.53125 31.117188 31.273438 L 31.109375 31.273438 C 30.835938 30.695312 30.359375 29.886719 29.742188 29.414062 C 28.632812 28.554688 28.277344 28.011719 28.277344 27.1875 C 28.277344 27.011719 28.410156 26.871094 28.585938 26.871094 C 28.757812 26.871094 28.902344 27.011719 28.902344 27.1875 C 28.902344 27.648438 28.984375 28.039062 30.125 28.914062 C 30.96875 29.5625 31.550781 30.695312 31.816406 31.3125 Z M 31.816406 31.3125 "/>
<path style=" stroke:none;fill-rule:nonzero;fill:rgb(44.705882%,25.098039%,12.156863%);fill-opacity:1;" d="M 19.027344 30.953125 C 18.515625 31.453125 18.375 32.289062 18.351562 32.972656 C 17.984375 33.238281 17.824219 33.65625 17.757812 34.03125 C 17.691406 33.421875 17.566406 31.503906 18.585938 30.503906 C 19.527344 29.589844 19.101562 28.339844 19.085938 28.289062 C 19.027344 28.121094 19.117188 27.945312 19.277344 27.886719 C 19.433594 27.839844 19.617188 27.914062 19.675781 28.078125 C 19.699219 28.148438 20.25 29.753906 19.027344 30.953125 Z M 19.027344 30.953125 "/>
</g>
</svg>
